HIERARCHY
ROOT Hips
{
	OFFSET 52.349499 -32.634415 97.211891
	CHANNELS 6 Xposition Yposition Zposition Xrotation Yrotation Zrotation
	JOINT spine
	{
		OFFSET 0.000000 -0.458069 7.965683
		CHANNELS 3 Xrotation Yrotation Zrotation
		JOINT spine1
		{
			OFFSET 0.000000 -0.000004 10.243103
			CHANNELS 3 Xrotation Yrotation Zrotation
			JOINT spine2
			{
				OFFSET 0.000000 0.000000 9.814751
				CHANNELS 3 Xrotation Yrotation Zrotation
				JOINT Neck
				{
					OFFSET 0.000000 -1.201385 25.198608
					CHANNELS 3 Xrotation Yrotation Zrotation
					JOINT Head
					{
						OFFSET 0.000000 -0.000004 7.613144
						CHANNELS 3 Xrotation Yrotation Zrotation
						End Site
						{
							OFFSET 0.000000 6.077328 18.428101
						}
					}
				}
				JOINT RightShoulder
				{
					OFFSET -4.132702 0.575447 10.599213
					CHANNELS 3 Xrotation Yrotation Zrotation
					JOINT RightArm
					{
						OFFSET 0.000000 0.000000 13.901794
						CHANNELS 3 Xrotation Yrotation Zrotation
						JOINT RightArmRoll
						{
							OFFSET 0.000000 -0.000004 7.017883
							CHANNELS 3 Xrotation Yrotation Zrotation
							JOINT RightForeArm
							{
								OFFSET 0.000000 -0.000004 20.440598
								CHANNELS 3 Xrotation Yrotation Zrotation
								JOINT RightForeArmRoll
								{
									OFFSET 0.000000 0.000000 7.875153
									CHANNELS 3 Xrotation Yrotation Zrotation
									JOINT RightHand
									{
										OFFSET 0.000000 -0.000004 15.803696
										CHANNELS 3 Xrotation Yrotation Zrotation
										End Site
										{
											OFFSET 0.000000 0.000000 0.100006
										}
									}
								}
							}
						}
					}
				}
				JOINT LeftShoulder
				{
					OFFSET 4.132702 0.575447 10.599213
					CHANNELS 3 Xrotation Yrotation Zrotation
					JOINT LeftArm
					{
						OFFSET 0.000000 0.000000 13.901794
						CHANNELS 3 Xrotation Yrotation Zrotation
						JOINT LeftArmRoll
						{
							OFFSET 0.000000 -0.000004 7.017883
							CHANNELS 3 Xrotation Yrotation Zrotation
							JOINT LeftForeArm
							{
								OFFSET 0.000000 -0.000004 20.440598
								CHANNELS 3 Xrotation Yrotation Zrotation
								JOINT LeftForeArmRoll
								{
									OFFSET 0.000000 0.000000 7.875153
									CHANNELS 3 Xrotation Yrotation Zrotation
									JOINT LeftHand
									{
										OFFSET 0.000000 -0.000004 15.803696
										CHANNELS 3 Xrotation Yrotation Zrotation
										End Site
										{
											OFFSET 0.000000 0.000000 0.100006
										}
									}
								}
							}
						}
					}
				}
			}
		}
	}
	JOINT RightUpLeg
	{
		OFFSET -7.060482 1.086100 -1.294701
		CHANNELS 3 Xrotation Yrotation Zrotation
		JOINT RightUpLegRoll
		{
			OFFSET 0.000000 -0.000004 18.530800
			CHANNELS 3 Xrotation Yrotation Zrotation
			JOINT RightLeg
			{
				OFFSET 0.000000 0.000004 -22.947601
				CHANNELS 3 Xrotation Yrotation Zrotation
				JOINT RightLegRoll
				{
					OFFSET 0.000000 -0.000004 23.022598
					CHANNELS 3 Xrotation Yrotation Zrotation
					JOINT RightFoot
					{
						OFFSET 0.000000 -0.000002 19.162514
						CHANNELS 3 Xrotation Yrotation Zrotation
						JOINT RightToeBase
						{
							OFFSET 0.000000 -0.000004 16.018799
							CHANNELS 3 Xrotation Yrotation Zrotation
							End Site
							{
								OFFSET 0.006790 0.894207 7.757812
							}
						}
					}
				}
			}
		}
	}
	JOINT LeftUpLeg
	{
		OFFSET 7.060482 1.086100 -1.294701
		CHANNELS 3 Xrotation Yrotation Zrotation
		JOINT LeftUpLegRoll
		{
			OFFSET 0.000000 -0.000004 18.530899
			CHANNELS 3 Xrotation Yrotation Zrotation
			JOINT LeftLeg
			{
				OFFSET 0.000000 -0.000004 22.947510
				CHANNELS 3 Xrotation Yrotation Zrotation
				JOINT LeftLegRoll
				{
					OFFSET 0.000000 -0.000004 23.235504
					CHANNELS 3 Xrotation Yrotation Zrotation
					JOINT LeftFoot
					{
						OFFSET 0.000000 -0.000002 18.949600
						CHANNELS 3 Xrotation Yrotation Zrotation
						JOINT LeftToeBase
						{
							OFFSET 0.000000 -0.000004 16.018799
							CHANNELS 3 Xrotation Yrotation Zrotation
							End Site
							{
								OFFSET -0.030430 0.894207 7.757812
							}
						}
					}
				}
			}
		}
	}
}
MOTION
Frames: 5
Frame Time: 0.041667
51.864502 -13.682320 81.968796 21.453873 -0.962166 -0.755470 3.000233 -0.028757 -0.270835 10.003111 -0.079561 -0.529648 11.648216 -0.085900 -0.528658 -41.041039 16.368724 5.046971 25.897414 -16.041418 1.491083 -8.062248 -50.835213 -8.904038 -49.892616 -149.190374 -65.821775 -0.000002 0.000011 -0.000001 28.108983 -13.447763 1.879351 0.000015 -0.000002 -2.999989 -4.999782 -7.998889 0.000031 -27.425843 58.643683 32.451988 123.612695 40.867573 -94.541539 -0.000001 0.000003 -0.000000 47.306932 17.280590 -5.376724 -0.000015 -0.000008 2.999977 -4.999850 7.998899 -0.000063 -67.260220 -176.359091 -1.741040 179.999991 0.000005 -0.888001 116.109719 0.324799 -1.858319 -0.000005 0.000001 1.569630 77.384274 6.594938 2.392501 27.435569 -7.260971 2.910700 -69.417002 173.549301 1.199008 -0.000036 -0.000004 -0.812407 -60.328281 1.454586 2.425575 -0.000002 -0.000001 -1.202660 70.400488 -6.881881 -2.058066 27.923654 7.211491 -3.584852 
51.867805 -13.748510 82.173195 21.353927 -0.941840 -0.783182 2.983939 -0.028138 -0.271011 9.970522 -0.079918 -0.530844 11.615615 -0.086271 -0.529850 -40.954046 16.269634 5.028975 25.969486 -15.923661 1.512339 -7.988008 -50.905461 -8.817974 -49.978659 -149.372754 -65.767885 -0.000002 0.000012 0.000001 27.287127 -13.483551 1.819583 0.000014 -0.000001 -2.999990 -4.999779 -7.998888 0.000030 -27.383593 58.708420 32.398312 123.569050 40.772975 -94.667235 -0.000001 0.000003 -0.000001 46.689589 17.429830 -5.388432 -0.000014 -0.000005 2.999983 -4.999852 7.998899 -0.000062 -66.813744 -176.395127 -1.752110 179.999991 0.000005 -0.885993 116.579431 0.301131 -1.867124 -0.000006 0.000001 1.549790 77.251215 6.600179 2.385251 27.440083 -7.260498 2.917272 -68.970752 173.556527 1.226849 -0.000035 -0.000004 -0.812242 -59.873090 1.467801 2.417761 -0.000003 -0.000001 -1.184890 70.298192 -6.885700 -2.055366 27.928741 7.210545 -3.592017 
51.867504 -13.833113 82.378784 21.253677 -0.921377 -0.810118 2.967513 -0.027612 -0.271271 9.937650 -0.080530 -0.532274 11.582712 -0.086900 -0.531272 -40.866330 16.167777 5.011502 26.044440 -15.801629 1.534279 -7.914086 -50.977455 -8.732475 -50.062821 -149.549314 -65.716904 -0.000002 0.000011 -0.000001 26.472671 -13.517032 1.759673 0.000012 -0.000004 -2.999990 -4.999783 -7.998888 0.000032 -27.344563 58.780041 32.347998 123.515529 40.683018 -94.779181 -0.000001 0.000003 -0.000001 46.071381 17.578218 -5.397679 -0.000015 -0.000008 2.999979 -4.999851 7.998899 -0.000064 -66.366134 -176.430316 -1.762454 179.999991 0.000005 -0.884996 117.050987 0.277879 -1.875844 -0.000004 0.000001 1.530020 77.117296 6.605433 2.378163 27.444597 -7.260027 2.923822 -68.523402 173.564573 1.255126 -0.000035 -0.000003 -0.812121 -59.415529 1.480254 2.409371 -0.000003 -0.000002 -1.167150 70.195295 -6.889497 -2.052710 27.933326 7.209629 -3.598449 
51.873299 -13.912411 82.582092 21.153135 -0.900876 -0.836319 2.950949 -0.027176 -0.271622 9.904529 -0.081344 -0.533928 11.549611 -0.087734 -0.532917 -40.778401 16.063831 4.994516 26.122328 -15.676418 1.556773 -7.840877 -51.050439 -8.647965 -50.144373 -149.719741 -65.668082 -0.000002 0.000011 -0.000001 25.667627 -13.548589 1.699899 0.000015 -0.000002 -2.999990 -4.999781 -7.998889 0.000033 -27.308109 58.856567 32.300436 123.456462 40.595427 -94.882823 -0.000001 0.000003 0.000000 45.452064 17.725647 -5.404447 -0.000013 -0.000007 2.999983 -4.999850 7.998898 -0.000065 -65.917459 -176.464084 -1.773467 179.999991 0.000005 -0.883999 117.524114 0.255101 -1.882480 -0.000005 0.000001 1.510310 76.982625 6.610730 2.371140 27.449108 -7.259549 2.930321 -68.074863 173.573589 1.283336 -0.000034 -0.000004 -0.812033 -58.956151 1.491925 2.400409 -0.000003 -0.000001 -1.149480 70.092330 -6.893290 -2.050165 27.936804 7.208840 -3.603321 
51.872604 -13.993713 82.783592 21.052105 -0.880435 -0.861811 2.934310 -0.026827 -0.272072 9.871228 -0.082308 -0.535800 11.516313 -0.088721 -0.534778 -40.690316 15.958742 4.978017 26.203088 -15.549062 1.579607 -7.768846 -51.123904 -8.564980 -50.222210 -149.885250 -65.619594 -0.000003 0.000011 -0.000000 24.873811 -13.578645 1.640469 0.000012 -0.000002 -2.999990 -4.999782 -7.998888 0.000031 -27.274018 58.936459 32.255476 123.392927 40.509896 -94.979115 -0.000001 0.000003 -0.000002 44.831108 17.871837 -5.408356 -0.000013 -0.000004 2.999981 -4.999850 7.998902 -0.000064 -65.467780 -176.496979 -1.783842 179.999991 0.000005 -0.882005 117.998416 0.231910 -1.890821 -0.000004 0.000001 1.490670 76.847278 6.615987 2.364267 27.453518 -7.259064 2.936730 -67.625266 173.583425 1.312181 -0.000032 -0.000005 -0.811970 -58.495038 1.502846 2.390830 -0.000003 -0.000001 -1.131910 69.990028 -6.897025 -2.047778 27.938593 7.208255 -3.605801 
